<?xml version="1.0" standalone="no"?>
<!DOCTYPE svg PUBLIC "-//W3C//DTD SVG 20010904//EN"
 "http://www.w3.org/TR/2001/REC-SVG-20010904/DTD/svg10.dtd">
<svg version="1.0" xmlns="http://www.w3.org/2000/svg"
 width="1000.000000pt" height="1000.000000pt" viewBox="0 0 1000.000000 1000.000000"
 preserveAspectRatio="xMidYMid meet">
<metadata>
Created by potrace 1.11, written by Peter Selinger 2001-2013
</metadata>
<g transform="translate(0.000000,1000.000000) scale(0.100000,-0.100000)"
fill="#000000" stroke="none">
<path d="M4720 8289 c-770 -67 -1478 -392 -2024 -927 -1062 -1040 -1301 -2637
-591 -3942 335 -615 880 -1122 1523 -1415 864 -394 1870 -394 2734 0 818 373
1454 1072 1747 1919 358 1036 181 2180 -472 3048 -636 847 -1616 1335 -2662
1327 -88 -1 -203 -5 -255 -10z m525 -199 c477 -41 936 -188 1334 -426 l113
-69 -7 -77 c-102 -1178 -1795 -2182 -4015 -2382 -222 -20 -501 -36 -653 -36
l-118 0 6 88 c47 661 272 1244 675 1752 107 135 345 373 480 480 425 337 913
554 1443 640 233 38 514 49 742 30z m1935 -900 c169 -168 279 -302 399 -485
295 -450 457 -920 503 -1458 6 -75 9 -139 7 -141 -7 -6 -193 13 -327 35 -826
129 -1442 561 -1522 1067 l-11 64 83 87 c295 306 481 641 550 993 l21 107 76
-62 c42 -34 141 -127 221 -207z m-1107 -1143 c165 -564 886 -1015 1794 -1122
70 -8 148 -16 173 -17 l45 -3 -3 -100 c-6 -195 -55 -473 -128 -712 -194 -639
-617 -1222 -1174 -1618 -398 -282 -840 -458 -1350 -536 -125 -20 -185 -23
-435 -23 -313 0 -439 13 -687 70 -773 177 -1455 648 -1891 1306 -290 437 -465
945 -507 1472 -5 71 -10 131 -10 132 0 2 46 4 103 4 137 0 453 17 662 35 1125
100 2161 404 2919 859 152 91 341 221 416 285 19 17 40 30 45 31 6 0 18 -28
28 -63z"/>
<path d="M3834 4991 c-33 -14 -64 -60 -64 -96 0 -31 -3 -34 -42 -40 -70 -11
-209 -68 -273 -110 -132 -88 -236 -219 -292 -366 -147 -390 42 -820 429 -976
34 -14 89 -31 120 -37 55 -10 58 -12 58 -39 0 -16 7 -42 17 -57 53 -90 183
-48 183 59 0 26 4 28 59 38 137 26 263 96 376 208 160 161 235 354 222 575 -7
118 -27 193 -77 295 -102 205 -305 363 -525 407 -52 10 -53 11 -58 51 -9 67
-76 112 -133 88z m-64 -882 l0 -551 -32 6 c-18 3 -71 24 -117 47 -139 68 -233
180 -287 339 -26 76 -26 244 0 320 43 128 143 258 244 318 45 26 157 71 180
71 9 1 12 -116 12 -550z m283 528 c90 -33 145 -67 208 -130 104 -105 159 -226
166 -367 12 -225 -107 -430 -308 -529 -46 -23 -99 -44 -116 -47 l-33 -6 0 551
c0 343 4 551 10 551 5 0 38 -10 73 -23z"/>
<path d="M5755 4855 c-180 -33 -355 -137 -459 -274 -128 -169 -184 -366 -158
-561 74 -555 667 -843 1150 -559 73 44 207 178 251 251 81 139 117 284 108
438 -7 118 -27 193 -77 295 -150 302 -486 471 -815 410z m35 -420 l0 -225
-225 0 c-124 0 -225 4 -225 8 0 20 42 129 64 166 54 92 142 178 225 221 40 20
130 53 149 54 9 1 12 -50 12 -224z m304 195 c122 -46 236 -152 297 -275 21
-44 42 -95 45 -112 l7 -33 -227 0 -226 0 0 226 0 226 25 -6 c14 -4 50 -16 79
-26z m-304 -846 l0 -226 -32 6 c-18 3 -70 24 -116 47 -93 46 -181 124 -227
203 -27 46 -75 166 -75 186 0 6 89 10 225 10 l225 0 0 -226z m644 194 c-12
-71 -84 -199 -149 -263 -63 -64 -190 -136 -262 -150 l-33 -7 0 226 0 226 225
0 225 0 -6 -32z"/>
<path d="M4114 2930 c-40 -16 -66 -61 -61 -104 7 -48 32 -75 83 -86 21 -5 414
-72 872 -150 905 -154 870 -150 908 -93 31 49 3 134 -49 147 -12 3 -220 39
-462 80 -242 41 -626 107 -853 146 -227 38 -414 70 -415 69 -1 0 -12 -4 -23
-9z"/>
</g>
</svg>
